<svg width="110" height="154" viewBox="0 0 110 154" fill="none" xmlns="http://www.w3.org/2000/svg">
<path d="M23.5001 54.2281C13.1001 64.2281 12.8334 88.0615 14.0001 98.7281C14.0001 101.728 14.5 108 14.5 108C13 106.5 5.50002 87.2281 2.00002 78.2281C-1.49998 69.2281 2.50005 37.2282 5.50005 31.2281C8.50005 25.2281 21.0001 8.22808 36.0001 3.72811C51.0001 -0.771859 75.5 0.5 83.5 7.5C92.5 14.5 105.2 32.3281 108 56.7281C110.8 81.1281 103 101.333 99 107L101 98.7281C103 79.7281 100 64.0615 96.0001 58.7282C92.0001 53.3949 85.647 47.7346 80.0001 44.2281C72.2166 39.3948 64.3851 38.7281 60.0001 38.7281C51 38.7281 36.5001 41.7281 23.5001 54.2281Z" fill="white" stroke="white"/>
<path fill-rule="evenodd" clip-rule="evenodd" d="M14.5 100.995C14.6676 108.291 16.6122 122.585 19.0262 125.37C19.3056 125.693 19.7102 126.195 20.2303 126.84C25.3256 133.159 41.5085 153.228 59.7616 153.228C74.8488 153.228 93.4564 130.842 94.9651 125.37C97.2968 116.914 99.4913 106.964 101 100C101 100 89.9361 116.914 86.9186 118.903C85.5735 119.79 83.9287 117.317 81.8949 114.258C79.3663 110.455 76.2365 105.748 72.3343 105.472C67.4405 105.126 60.8459 105.261 55.2526 105.376C52.7989 105.426 50.5378 105.472 48.6977 105.472C42.6628 105.472 37.6337 108.457 35.6221 110.944C34.4278 112.421 33.6989 114.159 33.0806 115.634C32.3091 117.474 31.7096 118.903 30.593 118.903C28.9837 118.903 19.1938 106.964 14.5 100.995ZM76.8605 120.396C77.3633 113.929 70.4903 113.929 64.2878 113.929L54.2297 113.929C54.2297 113.929 41.657 112.934 40.6512 115.919C39.6453 118.903 39.042 123.567 41.6569 124.873C44.95 126.518 53.9685 127.858 58.2529 127.858C62.8396 127.858 69.7275 127.629 73.3401 126.365C76.4612 125.273 76.6274 123.393 76.8605 120.396Z" fill="white"/>
<path d="M19.0262 125.37L18.6483 125.698L19.0262 125.37ZM14.5 100.995L14.893 100.686L13.9657 99.5064L14.0001 101.006L14.5 100.995ZM20.2303 126.84L20.6195 126.526L20.2303 126.84ZM94.9651 125.37L95.4471 125.503L94.9651 125.37ZM101 100L101.489 100.106L100.582 99.7263L101 100ZM86.9186 118.903L87.1939 119.321L86.9186 118.903ZM81.8949 114.258L81.4786 114.535V114.535L81.8949 114.258ZM72.3343 105.472L72.2991 105.971L72.3343 105.472ZM55.2526 105.376L55.2424 104.876L55.2526 105.376ZM35.6221 110.944L36.0109 111.259V111.259L35.6221 110.944ZM33.0806 115.634L32.6194 115.44L33.0806 115.634ZM64.2878 113.929V113.429H64.2878L64.2878 113.929ZM76.8605 120.396L77.359 120.435L76.8605 120.396ZM54.2297 113.929L54.1902 114.427L54.2099 114.429H54.2297L54.2297 113.929ZM40.6512 115.919L40.1773 115.759L40.6512 115.919ZM41.6569 124.873L41.4335 125.32L41.6569 124.873ZM73.3401 126.365L73.175 125.893L73.3401 126.365ZM19.404 125.043C19.1527 124.753 18.8826 124.281 18.6059 123.627C18.3321 122.981 18.0639 122.187 17.8051 121.276C17.2876 119.454 16.8166 117.198 16.4139 114.791C15.6082 109.977 15.083 104.604 14.9999 100.983L14.0001 101.006C14.0846 104.682 14.6155 110.104 15.4276 114.957C15.8337 117.383 16.3119 119.679 16.8432 121.549C17.1088 122.484 17.3899 123.32 17.6851 124.017C17.9774 124.708 18.2961 125.291 18.6483 125.698L19.404 125.043ZM20.6195 126.526C20.1023 125.884 19.6908 125.374 19.404 125.043L18.6483 125.698C18.9205 126.012 19.3181 126.505 19.8411 127.153L20.6195 126.526ZM59.7616 152.728C50.8112 152.728 42.3158 147.801 35.382 142.019C28.4591 136.247 23.1663 129.684 20.6195 126.526L19.8411 127.153C22.3896 130.314 27.7359 136.946 34.7416 142.787C41.7363 148.62 50.4589 153.728 59.7616 153.728V152.728ZM94.4831 125.237C94.313 125.855 93.8857 126.756 93.2096 127.881C92.5387 128.997 91.6403 130.305 90.5525 131.728C88.3768 134.574 85.4567 137.865 82.1141 140.986C78.7705 144.108 75.0151 147.05 71.1701 149.209C67.3205 151.37 63.4152 152.728 59.7616 152.728V153.728C63.6517 153.728 67.73 152.287 71.6597 150.081C75.5941 147.871 79.4137 144.875 82.7965 141.717C86.1803 138.557 89.1379 135.225 91.347 132.335C92.4515 130.89 93.3722 129.551 94.0667 128.396C94.7559 127.249 95.2401 126.254 95.4471 125.503L94.4831 125.237ZM100.511 99.8941C99.0025 106.859 96.8106 116.796 94.4831 125.237L95.4471 125.503C97.783 117.031 99.9801 107.07 101.489 100.106L100.511 99.8941ZM87.1939 119.321C87.628 119.034 88.1669 118.511 88.7606 117.855C89.363 117.19 90.0509 116.356 90.7854 115.419C92.2549 113.543 93.9265 111.234 95.5001 108.993C97.0743 106.75 98.5537 104.571 99.6394 102.952C100.182 102.143 100.627 101.474 100.936 101.006C101.09 100.773 101.211 100.59 101.293 100.465C101.334 100.403 101.365 100.355 101.386 100.323C101.397 100.307 101.405 100.294 101.41 100.286C101.413 100.282 101.415 100.279 101.416 100.277C101.417 100.276 101.418 100.275 101.418 100.275C101.418 100.274 101.418 100.274 101.418 100.274C101.418 100.274 101.418 100.274 101 100C100.582 99.7263 100.582 99.7263 100.581 99.7265C100.581 99.7266 100.581 99.7268 100.581 99.727C100.581 99.7275 100.58 99.7282 100.58 99.7293C100.578 99.7313 100.576 99.7343 100.574 99.7383C100.568 99.7464 100.561 99.7584 100.55 99.7744C100.529 99.8063 100.498 99.8537 100.457 99.9157C100.376 100.04 100.256 100.222 100.102 100.455C99.7937 100.92 99.3504 101.588 98.8089 102.395C97.7257 104.01 96.2505 106.183 94.6816 108.418C93.112 110.654 91.4519 112.946 89.9982 114.802C89.2712 115.73 88.5996 116.544 88.0194 117.184C87.4305 117.834 86.9636 118.275 86.6433 118.486L87.1939 119.321ZM81.4786 114.535C82.4859 116.05 83.4314 117.475 84.3001 118.402C84.7332 118.864 85.1872 119.248 85.6613 119.444C86.1664 119.653 86.6995 119.647 87.1939 119.321L86.6433 118.486C86.4651 118.603 86.2882 118.621 86.0431 118.52C85.7669 118.406 85.4304 118.146 85.0299 117.718C84.2315 116.866 83.3377 115.525 82.3113 113.981L81.4786 114.535ZM72.2991 105.971C74.0596 106.095 75.7065 107.227 77.2655 108.885C78.8177 110.535 80.2092 112.626 81.4786 114.535L82.3113 113.981C81.052 112.087 79.6143 109.922 77.9939 108.2C76.3803 106.484 74.5112 105.125 72.3695 104.973L72.2991 105.971ZM55.2628 105.875C60.8639 105.761 67.4329 105.627 72.2991 105.971L72.3695 104.973C67.448 104.625 60.8278 104.761 55.2424 104.876L55.2628 105.875ZM48.6977 105.972C50.5441 105.972 52.8108 105.926 55.2628 105.875L55.2424 104.876C52.7869 104.926 50.5316 104.972 48.6977 104.972V105.972ZM36.0109 111.259C37.9237 108.893 42.8075 105.972 48.6977 105.972V104.972C42.5181 104.972 37.3437 108.02 35.2333 110.63L36.0109 111.259ZM33.5417 115.827C34.1637 114.344 34.8682 112.671 36.0109 111.259L35.2333 110.63C33.9875 112.17 33.2342 113.974 32.6194 115.44L33.5417 115.827ZM30.593 119.403C31.4066 119.403 31.9667 118.868 32.3841 118.233C32.801 117.598 33.1625 116.731 33.5417 115.827L32.6194 115.44C32.2272 116.376 31.9032 117.144 31.5483 117.684C31.194 118.223 30.8961 118.403 30.593 118.403V119.403ZM14.107 101.304C16.4568 104.292 20.0831 108.776 23.3254 112.515C24.9457 114.384 26.4764 116.073 27.7068 117.299C28.3208 117.91 28.8697 118.416 29.3233 118.772C29.5496 118.95 29.7631 119.099 29.9573 119.206C30.136 119.304 30.3611 119.403 30.593 119.403V118.403C30.6238 118.403 30.5838 118.409 30.4401 118.33C30.3117 118.259 30.1453 118.146 29.9407 117.985C29.5326 117.665 29.0159 117.191 28.4125 116.59C27.208 115.391 25.6961 113.723 24.0809 111.86C20.8526 108.137 17.237 103.667 14.893 100.686L14.107 101.304ZM64.2878 114.429C67.4169 114.429 70.5936 114.434 72.9308 115.212C74.0865 115.596 74.9888 116.155 75.5779 116.954C76.1619 117.746 76.4806 118.832 76.362 120.357L77.359 120.435C77.4918 118.727 77.1399 117.387 76.3828 116.36C75.6308 115.341 74.5215 114.687 73.2464 114.263C70.7223 113.423 67.3612 113.429 64.2878 113.429V114.429ZM54.2297 114.429L64.2878 114.429L64.2878 113.429L54.2296 113.429L54.2297 114.429ZM41.125 116.078C41.1974 115.863 41.3918 115.634 41.7766 115.407C42.1588 115.183 42.681 114.991 43.3172 114.834C44.5878 114.52 46.2137 114.366 47.8366 114.304C49.4539 114.243 51.0431 114.273 52.23 114.32C52.8228 114.343 53.3141 114.37 53.6566 114.391C53.8279 114.402 53.9619 114.411 54.0528 114.417C54.0982 114.42 54.1329 114.423 54.1561 114.425C54.1676 114.426 54.1763 114.426 54.1821 114.427C54.1849 114.427 54.187 114.427 54.1884 114.427C54.1891 114.427 54.1896 114.427 54.1899 114.427C54.19 114.427 54.1901 114.427 54.1902 114.427C54.1902 114.427 54.1902 114.427 54.2297 113.929C54.2691 113.43 54.269 113.43 54.2688 113.43C54.2687 113.43 54.2685 113.43 54.2683 113.43C54.2678 113.43 54.2672 113.43 54.2663 113.43C54.2646 113.43 54.2622 113.43 54.259 113.43C54.2526 113.429 54.2433 113.428 54.231 113.428C54.2066 113.426 54.1705 113.423 54.1236 113.42C54.0299 113.413 53.8928 113.404 53.7183 113.393C53.3694 113.371 52.8705 113.344 52.269 113.32C51.067 113.274 49.4502 113.242 47.7986 113.305C46.1526 113.368 44.4467 113.525 43.0771 113.863C42.3931 114.032 41.7681 114.253 41.2702 114.545C40.7749 114.836 40.3564 115.228 40.1773 115.759L41.125 116.078ZM41.8804 124.426C40.8294 123.901 40.3448 122.661 40.296 121.01C40.248 119.386 40.6341 117.535 41.125 116.078L40.1773 115.759C39.6624 117.287 39.2439 119.26 39.2965 121.04C39.3483 122.794 39.8696 124.539 41.4335 125.32L41.8804 124.426ZM58.2529 127.358C56.1488 127.358 52.853 127.027 49.6664 126.489C46.4642 125.949 43.4533 125.212 41.8804 124.426L41.4335 125.32C43.1536 126.18 46.2986 126.935 49.4999 127.475C52.7169 128.018 56.0726 128.358 58.2529 128.358V127.358ZM73.175 125.893C71.4335 126.503 68.8632 126.872 66.1228 127.087C63.3939 127.301 60.5396 127.358 58.2529 127.358V128.358C60.553 128.358 63.4359 128.301 66.2009 128.084C68.9543 127.868 71.6341 127.492 73.5053 126.837L73.175 125.893ZM76.362 120.357C76.2433 121.883 76.1448 123.001 75.7307 123.883C75.3404 124.714 74.6419 125.38 73.175 125.893L73.5053 126.837C75.1594 126.258 76.1046 125.439 76.6359 124.308C77.1435 123.227 77.2446 121.906 77.359 120.435L76.362 120.357Z" fill="white"/>
</svg>
